<?xml version="1.0" encoding="UTF-8"?>
<svg id="Camada_2" data-name="Camada 2" xmlns="http://www.w3.org/2000/svg" viewBox="0 0 94.17 78.19">
  <defs>
    <style>
      .cls-1 {
        fill: #fff;
      }
    </style>
  </defs>
  <g id="Camada_1-2" data-name="Camada 1">
    <g>
      <path class="cls-1" d="m93.67,37.86c.49.49.64,1.22.37,1.86-.26.64-.89,1.06-1.58,1.06h-6.32c-.89,20.78-18.06,37.41-39.06,37.41v-3.37c19.72,0,35.72-15.98,35.72-35.71v-7.98c0-.69.41-1.32,1.06-1.58.64-.27,1.38-.12,1.86.38l7.94,7.94Z"/>
      <path class="cls-1" d="m77.98,38.32c.39,17.59-14,31.98-31.59,31.59-16.45-.36-29.83-13.74-30.2-30.2-.39-17.59,14-31.98,31.59-31.59,16.45.36,29.83,13.74,30.2,30.2Zm-3.41,2.17l-6.22-4.52-11.45,2.57-2.7,8.32,6.92,10.65h6.33c4.14-4.55,6.77-10.49,7.12-17.03Zm-7.43-7.7l2.9-8.93c-3.14-4.73-7.7-8.45-13.07-10.52l-8.2,5.96v11.04l6.92,5.02,11.45-2.57Zm-8.71,26.8l-6.92-10.65h-8.86l-6.92,10.65,1.69,5.21c3.01,1.13,6.26,1.75,9.66,1.75s6.65-.62,9.66-1.75l1.69-5.21Zm-13.04-29.25v-11.04l-8.21-5.96c-5.37,2.08-9.93,5.79-13.07,10.52l2.9,8.93,11.45,2.57,6.92-5.02Zm-5.42,16.53l-2.7-8.32-11.45-2.57-6.22,4.52c.34,6.54,2.98,12.48,7.12,17.03h6.33l6.92-10.65Z"/>
      <path class="cls-1" d="m47.08,0v3.37c-9.86,0-18.79,4-25.26,10.46-6.46,6.46-10.46,15.39-10.46,25.26v7.97c0,.69-.41,1.31-1.05,1.58-.21.09-.44.13-.66.13-.44,0-.87-.17-1.2-.49l-7.96-7.96c-.49-.48-.64-1.22-.37-1.86.26-.64.88-1.06,1.58-1.06h6.32C8.92,16.63,26.09,0,47.08,0Z"/>
    </g>
  </g>
</svg>