<?xml version="1.0" encoding="UTF-8"?>
<svg id="Camada_2" data-name="Camada 2" xmlns="http://www.w3.org/2000/svg" viewBox="0 0 176.34 59.06">
  <defs>
    <style>
      .cls-1 {
        fill: #daa520;
      }

      .cls-2 {
        fill: #1d1d1b;
      }
    </style>
  </defs>
  <g id="Camada_1-2" data-name="Camada 1">
    <g>
      <g>
        <path class="cls-2" d="m70.75,28.6c.37.37.48.92.28,1.4-.2.49-.67.8-1.19.8h-4.77c-.67,15.69-13.64,28.25-29.5,28.25v-2.55c14.9,0,26.98-12.07,26.98-26.97v-6.03c0-.52.31-.99.8-1.19.49-.2,1.04-.09,1.41.28l6,6Z"/>
        <path class="cls-2" d="m58.9,28.94c.29,13.28-10.57,24.15-23.86,23.86-12.43-.27-22.53-10.38-22.81-22.81-.29-13.28,10.58-24.15,23.86-23.86,12.43.28,22.53,10.38,22.81,22.81Zm-2.57,1.64l-4.7-3.41-8.65,1.94-2.04,6.29,5.23,8.05h4.78c3.13-3.44,5.12-7.92,5.38-12.86Zm-5.29-5.54l2.23-6.88c-2.42-3.64-5.93-6.5-10.06-8.1l-6.32,4.59v8.5l5.32,3.87,8.82-1.98Zm-6.9,19.96l-5.23-8.05h-6.69l-5.23,8.05,1.28,3.94c2.27.85,4.73,1.32,7.29,1.32s5.02-.47,7.29-1.32l1.28-3.94Zm-9.84-21.85v-8.5l-6.32-4.59c-4.13,1.6-7.64,4.45-10.06,8.1l2.24,6.88,8.82,1.98,5.32-3.87Zm-4.18,12.73l-2.08-6.41-8.82-1.98-4.79,3.48c.27,5.03,2.3,9.6,5.48,13.11h4.88l5.33-8.2Z"/>
        <path class="cls-1" d="m51.63,27.17l4.7,3.41c-.26,4.94-2.25,9.42-5.38,12.86h-4.78l-5.23-8.05,2.04-6.29,8.65-1.94Z"/>
        <path class="cls-1" d="m53.27,18.16l-2.23,6.88-8.82,1.98-5.32-3.87v-8.5l6.32-4.59c4.13,1.6,7.64,4.45,10.06,8.1Z"/>
        <path class="cls-1" d="m38.91,36.95l5.23,8.05-1.28,3.94c-2.27.85-4.73,1.32-7.29,1.32s-5.02-.47-7.29-1.32l-1.28-3.94,5.23-8.05h6.69Z"/>
        <path class="cls-2" d="m35.56,0v2.55c-7.45,0-14.2,3.02-19.08,7.9s-7.9,11.63-7.9,19.08v6.02c0,.52-.31.99-.79,1.19-.16.07-.33.1-.5.1-.33,0-.66-.13-.9-.37L.38,30.46c-.37-.37-.48-.92-.28-1.4.2-.48.67-.8,1.19-.8h4.77C6.73,12.56,19.71,0,35.56,0Z"/>
        <path class="cls-1" d="m34.3,14.66v8.5l-5.32,3.87-8.82-1.98-2.24-6.88c2.42-3.64,5.93-6.5,10.06-8.1l6.32,4.59Z"/>
        <path class="cls-1" d="m28.04,29.47l2.08,6.41-5.33,8.2h-4.88c-3.19-3.5-5.21-8.08-5.48-13.11l4.79-3.48,8.82,1.98Z"/>
      </g>
      <g>
        <g>
          <path class="cls-2" d="m91.05,45.74c-.15.18-.29.32-.43.41s-.31.14-.51.14c-.17,0-.35-.05-.53-.16-.18-.11-.39-.23-.61-.37s-.5-.26-.8-.37c-.31-.11-.67-.16-1.08-.16-.72,0-1.28.15-1.68.46-.4.31-.65.72-.74,1.24-.06.33,0,.61.17.83.17.22.42.41.73.57.32.16.68.3,1.1.44.42.13.84.28,1.27.44.43.16.85.35,1.25.57s.75.5,1.03.84.49.75.61,1.24c.13.49.13,1.07,0,1.76-.13.76-.39,1.48-.77,2.14-.38.66-.87,1.24-1.46,1.74-.59.49-1.28.88-2.06,1.17s-1.65.42-2.58.42c-.51,0-1.03-.05-1.54-.16-.51-.11-1-.25-1.47-.45-.46-.19-.89-.42-1.28-.69-.39-.26-.72-.56-.99-.88l1.45-1.79c.11-.14.24-.25.41-.33s.34-.12.51-.12c.23,0,.44.07.65.21.2.14.44.3.7.48.26.17.57.33.92.48.35.14.78.22,1.3.22.69,0,1.26-.15,1.7-.46.44-.31.72-.79.83-1.45.07-.39.02-.7-.15-.94-.17-.24-.41-.44-.73-.6s-.68-.3-1.1-.42c-.42-.12-.84-.25-1.28-.4-.43-.15-.85-.33-1.25-.54-.4-.22-.74-.5-1.02-.85-.28-.35-.48-.79-.6-1.31-.12-.52-.11-1.17.03-1.94.11-.62.34-1.22.69-1.81.35-.59.81-1.11,1.38-1.57.56-.46,1.22-.83,1.97-1.1.75-.28,1.58-.41,2.48-.41.51,0,.99.04,1.46.12.47.08.9.2,1.3.35s.77.34,1.11.55c.34.22.63.46.87.73l-1.26,1.78Z"/>
          <path class="cls-2" d="m109.55,50.63c-.21,1.19-.61,2.3-1.2,3.33-.59,1.03-1.33,1.92-2.21,2.68-.88.76-1.89,1.35-3.01,1.78-1.13.43-2.33.65-3.62.65s-2.41-.22-3.4-.65c-.98-.43-1.78-1.02-2.4-1.78-.62-.76-1.04-1.65-1.27-2.68-.23-1.03-.24-2.14-.03-3.33.21-1.19.61-2.3,1.2-3.33.59-1.03,1.33-1.92,2.21-2.67.88-.75,1.89-1.35,3.02-1.78,1.13-.43,2.34-.65,3.62-.65s2.41.22,3.39.65c.98.43,1.77,1.03,2.39,1.78.61.75,1.04,1.65,1.27,2.67.23,1.03.24,2.13.03,3.32Zm-3.92,0c.14-.82.17-1.55.07-2.2s-.3-1.21-.62-1.66-.74-.8-1.27-1.04c-.53-.24-1.16-.36-1.89-.36s-1.42.12-2.04.36c-.62.24-1.17.59-1.64,1.04-.48.45-.88,1.01-1.2,1.66-.33.65-.56,1.39-.71,2.2s-.17,1.56-.07,2.21c.1.65.3,1.21.62,1.66.32.45.74.8,1.28,1.04.54.24,1.17.36,1.91.36s1.41-.12,2.02-.36c.62-.24,1.16-.58,1.64-1.04.48-.45.88-1.01,1.2-1.66.33-.65.56-1.39.71-2.21Z"/>
          <path class="cls-2" d="m121.76,54.61c.09,0,.18.02.26.05.08.03.16.09.23.18l1.24,1.6c-.82.87-1.76,1.52-2.84,1.96s-2.3.66-3.67.66c-1.25,0-2.34-.21-3.25-.64-.92-.43-1.65-1.01-2.21-1.77-.56-.75-.93-1.64-1.12-2.67-.19-1.03-.18-2.15.04-3.36s.63-2.36,1.23-3.39c.6-1.03,1.35-1.92,2.24-2.67.89-.75,1.9-1.33,3.03-1.74,1.13-.41,2.33-.62,3.61-.62.62,0,1.19.05,1.72.16.53.11,1.01.26,1.45.45.44.19.84.42,1.19.69.35.27.66.56.91.89l-1.6,1.73c-.1.11-.22.2-.35.29-.13.09-.29.13-.5.13-.14,0-.26-.03-.37-.09-.11-.06-.23-.13-.35-.22-.12-.09-.25-.18-.4-.28-.14-.1-.32-.2-.53-.28-.21-.09-.45-.16-.74-.22-.29-.06-.63-.09-1.03-.09-.69,0-1.35.12-1.97.37-.62.25-1.17.6-1.66,1.05-.49.46-.91,1.01-1.25,1.66-.34.65-.59,1.38-.73,2.18s-.17,1.6-.05,2.25c.11.66.33,1.21.65,1.66.32.45.72.79,1.21,1.02.49.23,1.03.35,1.64.35.35,0,.67-.02.96-.05.29-.03.57-.09.83-.18.26-.08.51-.19.76-.32.25-.13.5-.3.76-.49.1-.08.21-.14.33-.19.11-.05.23-.07.34-.07Z"/>
          <path class="cls-2" d="m136.63,54.61c.09,0,.18.02.26.05.08.03.16.09.23.18l1.24,1.6c-.82.87-1.76,1.52-2.84,1.96s-2.3.66-3.67.66c-1.25,0-2.34-.21-3.25-.64-.92-.43-1.65-1.01-2.21-1.77-.56-.75-.93-1.64-1.12-2.67-.19-1.03-.18-2.15.04-3.36s.63-2.36,1.23-3.39c.6-1.03,1.35-1.92,2.24-2.67.89-.75,1.9-1.33,3.03-1.74,1.13-.41,2.33-.62,3.61-.62.62,0,1.19.05,1.72.16.53.11,1.01.26,1.45.45.44.19.84.42,1.19.69.35.27.66.56.91.89l-1.6,1.73c-.1.11-.22.2-.35.29-.13.09-.29.13-.5.13-.14,0-.26-.03-.37-.09-.11-.06-.23-.13-.35-.22-.12-.09-.25-.18-.4-.28-.14-.1-.32-.2-.53-.28-.21-.09-.45-.16-.74-.22-.29-.06-.63-.09-1.03-.09-.69,0-1.35.12-1.97.37-.62.25-1.17.6-1.66,1.05-.49.46-.91,1.01-1.25,1.66-.34.65-.59,1.38-.73,2.18s-.17,1.6-.05,2.25c.11.66.33,1.21.65,1.66.32.45.72.79,1.21,1.02.49.23,1.03.35,1.64.35.35,0,.67-.02.96-.05.29-.03.57-.09.83-.18.26-.08.51-.19.76-.32.25-.13.5-.3.76-.49.1-.08.21-.14.33-.19.11-.05.23-.07.34-.07Z"/>
          <path class="cls-2" d="m153.2,42.38l-.52,2.94h-6.77l-.68,3.85h5.18l-.5,2.83h-5.18l-.69,3.93h6.77l-.52,2.94h-10.62l2.91-16.49h10.62Z"/>
          <path class="cls-2" d="m157.36,52.78l-1.08,6.1h-3.83l2.91-16.49h5.37c1.19,0,2.19.12,2.99.37.8.25,1.42.59,1.88,1.02s.75.95.89,1.55c.14.6.14,1.25.02,1.95-.09.54-.26,1.04-.48,1.52-.23.48-.52.91-.87,1.32s-.77.76-1.23,1.08-.99.58-1.56.78c.23.13.45.29.63.48.19.19.34.42.46.69l2.5,5.74h-3.46c-.64,0-1.06-.24-1.25-.72l-1.89-4.79c-.08-.21-.2-.36-.34-.45-.15-.09-.37-.14-.66-.14h-.97Zm.47-2.64h1.54c.52,0,.98-.07,1.36-.2.39-.13.72-.32,1-.55s.49-.51.65-.82c.16-.31.27-.65.34-1.01.13-.72,0-1.29-.41-1.7s-1.09-.61-2.08-.61h-1.54l-.86,4.89Z"/>
        </g>
        <g>
          <path class="cls-2" d="m82.29,36.47L88.72,0h13.42c2.52,0,4.62.23,6.31.7,1.69.47,3.01,1.13,3.98,1.98.97.85,1.6,1.89,1.89,3.1.29,1.22.31,2.58.04,4.08-.14.82-.4,1.61-.77,2.37-.37.76-.86,1.47-1.48,2.14-.62.67-1.37,1.27-2.25,1.82-.88.54-1.91,1.01-3.08,1.41,2.3.58,3.91,1.53,4.83,2.84.92,1.31,1.2,2.99.84,5.04-.27,1.55-.83,3-1.66,4.33-.84,1.34-1.92,2.5-3.26,3.49-1.34.99-2.9,1.77-4.7,2.33-1.8.56-3.79.84-5.98.84h-14.57Zm12.19-21.13h4.41c.93,0,1.79-.07,2.56-.2.77-.13,1.45-.37,2.04-.7.58-.33,1.07-.79,1.44-1.38.38-.58.65-1.32.8-2.2s.17-1.59.06-2.17c-.12-.58-.37-1.04-.76-1.39-.39-.35-.92-.6-1.58-.75-.67-.15-1.47-.23-2.43-.23h-4.96l-1.59,9.01Zm-1,5.66l-1.6,9.09h5.96c1.12,0,2.06-.14,2.82-.43.76-.28,1.38-.65,1.86-1.1.48-.45.84-.96,1.1-1.53.25-.57.43-1.14.53-1.73.12-.67.14-1.27.06-1.8-.08-.53-.3-.98-.66-1.35-.36-.37-.87-.65-1.54-.85s-1.53-.3-2.6-.3h-5.91Z"/>
          <path class="cls-2" d="m145.05,0l-1.15,6.51h-14.97l-1.5,8.51h11.47l-1.1,6.26h-11.47l-1.53,8.69h14.97l-1.15,6.51h-23.48L121.57,0h23.48Z"/>
          <path class="cls-2" d="m176.34,0l-1.18,6.71h-10.26l-5.25,29.76h-8.46l4.65-26.35,3.06-3.41h-12.72l1.18-6.71h28.99Z"/>
        </g>
      </g>
    </g>
  </g>
</svg>